<?xml version="1.0" encoding="utf-8"?>
<!-- Generator: Adobe Illustrator 24.1.1, SVG Export Plug-In . SVG Version: 6.00 Build 0)  -->
<svg version="1.1" id="Lag_1" xmlns="http://www.w3.org/2000/svg" xmlns:xlink="http://www.w3.org/1999/xlink" x="0px" y="0px"
	 viewBox="0 0 304.5 62.3" style="enable-background:new 0 0 304.5 62.3;" xml:space="preserve">
<style type="text/css">
	.st0{stroke:#000000;stroke-width:0.5;stroke-miterlimit:10;}
</style>
<g>
	<path d="M29.6,34.3H7.2v18.3h26v5.6H0.4V6.5h32.5v5.6H7.2v16.6h22.4V34.3z"/>
	<path d="M55.3,53.5c2.3,0,4.4-0.7,6.1-2.1c1.7-1.4,2.7-3.2,2.9-5.3h6.2c-0.1,2.2-0.9,4.3-2.3,6.3c-1.4,2-3.3,3.6-5.6,4.8
		c-2.3,1.2-4.8,1.8-7.4,1.8c-5.2,0-9.4-1.7-12.5-5.2c-3.1-3.5-4.6-8.3-4.6-14.3v-1.1c0-3.7,0.7-7.1,2.1-10c1.4-2.9,3.3-5.2,5.9-6.8
		s5.6-2.4,9.1-2.4c4.3,0,7.9,1.3,10.7,3.9c2.8,2.6,4.4,5.9,4.6,10h-6.2c-0.2-2.5-1.1-4.5-2.8-6.1c-1.7-1.6-3.8-2.4-6.3-2.4
		c-3.3,0-5.9,1.2-7.8,3.6s-2.7,5.9-2.7,10.4v1.2c0,4.4,0.9,7.8,2.7,10.2C49.4,52.3,52,53.5,55.3,53.5z"/>
	<path d="M76.2,38.6c0-3.8,0.7-7.1,2.2-10.1s3.5-5.3,6.2-7c2.6-1.6,5.6-2.4,9-2.4c5.2,0,9.5,1.8,12.7,5.4c3.2,3.6,4.8,8.4,4.8,14.4
		v0.5c0,3.7-0.7,7.1-2.1,10.1c-1.4,3-3.5,5.3-6.1,6.9c-2.7,1.7-5.7,2.5-9.2,2.5c-5.2,0-9.4-1.8-12.6-5.4c-3.2-3.6-4.8-8.4-4.8-14.4
		V38.6z M82.8,39.4c0,4.3,1,7.7,3,10.3c2,2.6,4.6,3.9,7.9,3.9c3.3,0,6-1.3,7.9-3.9c2-2.6,2.9-6.3,2.9-11c0-4.2-1-7.6-3-10.2
		s-4.7-3.9-8-3.9c-3.2,0-5.9,1.3-7.8,3.9S82.8,34.6,82.8,39.4z"/>
	<path d="M125.6,19.8l0.2,4.8c2.9-3.7,6.8-5.5,11.5-5.5c8.1,0,12.2,4.6,12.3,13.7v25.4H143V32.8c0-2.8-0.7-4.8-1.9-6.1
		c-1.2-1.3-3.2-2-5.8-2c-2.1,0-4,0.6-5.6,1.7s-2.9,2.6-3.8,4.5v27.3h-6.6V19.8H125.6z"/>
	<path d="M162.7,58.2V24.9h-6.1v-5.1h6.1v-3.9c0-4.1,1.1-7.3,3.3-9.5s5.3-3.4,9.3-3.4c1.5,0,3,0.2,4.5,0.6l-0.4,5.3
		c-1.1-0.2-2.3-0.3-3.5-0.3c-2.1,0-3.8,0.6-4.9,1.9s-1.7,3-1.7,5.4v4.1h8.2v5.1h-8.2v33.3H162.7z"/>
</g>
<circle cx="248.4" cy="12" r="11.9"/>
<circle cx="292.4" cy="50.6" r="11.9"/>
<circle cx="203.9" cy="50.6" r="11.9"/>
<line class="st0" x1="215.8" y1="50.6" x2="280.5" y2="50.6"/>
<line class="st0" x1="258.5" y1="17.6" x2="283.6" y2="43.6"/>
<line class="st0" x1="238.6" y1="17.3" x2="212.5" y2="43.9"/>
</svg>
