<?xml version="1.0" encoding="utf-8"?>
<!-- Generator: Adobe Illustrator 22.1.0, SVG Export Plug-In . SVG Version: 6.00 Build 0)  -->
<svg version="1.1" id="Layer_1" xmlns="http://www.w3.org/2000/svg" xmlns:xlink="http://www.w3.org/1999/xlink" x="0px" y="0px"
	 viewBox="0 0 800 115" enable-background="new 0 0 800 115" xml:space="preserve">
<path fill="#FFFFFF" d="M101.7,20.9h14c1.1,0,2,1.1,1.8,2.2l-3.1,14.5l0.2,0.2c2.4-3.6,8.9-8.1,18.4-8.1c9.7,0,15.5,5.9,15.5,15.2
	c0,3.5-1.2,8.9-1.9,11.6l-6.1,27.3c-0.2,0.8-0.9,1.4-1.8,1.4h-14c-1.1,0-2-1.1-1.8-2.2l5.7-26.4c0.5-2.5,1-4.8,1-6.9
	c0-4.3-2.7-6.6-6.4-6.6c-10.9,0-12.2,10.3-14,19.1l-4.5,21.4c-0.2,0.8-0.9,1.4-1.8,1.4h-14c-1.1,0-2-1.1-1.8-2.2l12.8-60.7
	C100.1,21.5,100.8,20.9,101.7,20.9z"/>
<path fill="#FFFFFF" d="M158.5,47.9c-1.2,0-2.1-1.1-1.7-2.3c3.4-12.2,13.4-15.9,25.9-15.9c15,0,24.6,3.6,24.6,14.1
	c0,7.2-4.1,22.2-5.3,27.1c-0.9,3.7-1.7,7.2-1.7,10.1c0,0.8,0.1,1.4,0.2,2c0.2,1.1-0.6,2.1-1.8,2.1h-13.5c-0.9,0-1.7-0.7-1.8-1.5
	c-0.2-1.1-0.2-1.6-0.2-3.7h-0.2c-3.3,4.8-8.6,6.8-16.3,6.8c-10.1,0-17.6-4.1-17.6-15.2c0-14.5,12.9-17.3,26.7-18.3
	c6-0.3,14.4,0.1,14.4-7c0-3.1-2.2-5.2-7.5-5.2c-5.1,0-8.4,1.4-9.5,5.4c-0.2,0.8-0.9,1.4-1.7,1.4H158.5z M174,75.8
	c10.7,0,12.8-10.5,13.4-15.4h-0.1c-4.5,3.7-20.5-0.6-20.5,9.8C166.8,74.5,170.5,75.8,174,75.8z"/>
<path fill="#FFFFFF" d="M220.3,31.2h14c1.2,0,2,1.1,1.8,2.2l-1,4.4h0.2c2.6-3.6,9.2-8.1,18.6-8.1c9.7,0,15.5,5.9,15.5,15.2
	c0,3.5-1.2,8.9-1.9,11.6l-6.1,27.3c-0.2,0.8-0.9,1.4-1.8,1.4h-14c-1.1,0-2-1.1-1.8-2.2l5.7-26.4c0.5-2.5,1-4.8,1-6.9
	c0-4.3-2.7-6.6-6.4-6.6c-10.9,0-12.2,10.3-14,19.1l-4.5,21.4c-0.2,0.8-0.9,1.4-1.8,1.4h-14c-1.1,0-2-1-1.8-2.2l10.5-50.4
	C218.7,31.8,219.5,31.2,220.3,31.2z"/>
<path fill="#FFFFFF" d="M322,85.2h-13.5c-1.1,0-2-1.1-1.8-2.2l1-4.5h-0.2c-3.6,5.7-8.9,8.2-15.7,8.2c-14,0-19.9-10-19.9-23
	c0-17.5,10-34.1,28.7-34.1c7.5,0,12.7,2.7,14.8,8.7h0.2l3.2-16.1c0.2-0.8,0.9-1.4,1.8-1.4h14c1.1,0,2,1,1.8,2.2l-12.6,60.7
	C323.6,84.6,322.9,85.2,322,85.2z M312.3,53.2c0-5.9-3.2-10-9-10c-10,0-13.6,11.1-13.6,19.6c0,5.7,2.5,10.5,8.9,10.5
	C308.5,73.2,312.3,61.4,312.3,53.2z"/>
<path fill="#FFFFFF" d="M351.5,64.2c0,0.5-0.1,1.1-0.1,1.8c0,0.1,0,0.2,0,0.2c0.6,5.5,3.8,8.5,9.6,8.5c5.5,0,8.4-1.9,9.9-4.9
	c0.3-0.6,0.9-1,1.6-1H386c1.3,0,2.2,1.3,1.7,2.5c-4.8,11.1-15.1,15.4-27.3,15.4c-15,0-25.9-7.6-25.9-23.5
	c0-19.1,12.6-33.6,32.1-33.6c13.9,0,24.6,8,24.6,23.6c0,2.7-0.1,5.2-0.4,7.7c-0.1,0.9-0.9,1.6-1.8,1.6h-35.7
	C352.3,62.5,351.6,63.3,351.5,64.2z M372.4,52.6c1,0,1.8-0.9,1.8-1.9c-0.2-5.1-3-9.1-8.3-9.1c-6.4,0-10.1,3.2-12.2,8.6
	c-0.5,1.2,0.4,2.5,1.7,2.5H372.4z"/>
<path fill="#FFFFFF" d="M407.7,20.9h14c1.1,0,2,1,1.8,2.2l-12.6,60.7c-0.2,0.8-0.9,1.4-1.8,1.4h-14c-1.1,0-2-1-1.8-2.2l12.6-60.7
	C406.1,21.5,406.8,20.9,407.7,20.9z"/>
<path fill="#FFFFFF" d="M436.7,69c0.2,1.7,0.9,2.9,1.8,4c0.1,0.1,0.1,0.1,0.2,0.2c1.7,1.5,4.1,2.1,6.9,2.1c3,0,7.9-1.1,7.9-5.5
	c0-4.7-4.3-4.9-12.9-7.1c-7.9-1.8-14.9-4.6-14.9-14.8c0-14.5,14.6-18.3,26.1-18.3c10.7,0,21.9,3.3,22.3,15.6c0,1-0.8,1.8-1.8,1.8
	h-12.5c-0.9,0-1.7-0.7-1.8-1.6c-0.1-1.2-0.6-2.3-1.3-3.1c-1-1.2-3.3-1.9-5.3-1.9c-3.6,0-8,1.2-8,5.1s5.7,4.6,12.1,6.1
	c10,2.5,15.7,4.8,15.7,15.4c0,16.5-15,19.6-27.7,19.6c-13.1,0-21.7-4.7-23-17.3c-0.1-1.1,0.7-2,1.8-2h12.6
	C435.8,67.5,436.6,68.2,436.7,69z"/>
<path fill="#FFFFFF" d="M525.2,85.2h-13.5c-1.1,0-2-1.1-1.8-2.2l1-4.5h-0.2c-3.6,5.7-8.9,8.2-15.7,8.2c-14,0-19.9-10-19.9-23
	c0-17.5,10-34.1,28.7-34.1c7.5,0,12.7,2.7,14.8,8.7h0.2l3.2-16.1c0.2-0.8,0.9-1.4,1.8-1.4h14c1.1,0,2,1,1.8,2.2L527,83.8
	C526.8,84.6,526.1,85.2,525.2,85.2z M515.5,53.2c0-5.9-3.2-10-9-10c-10,0-13.6,11.1-13.6,19.6c0,5.7,2.5,10.5,8.9,10.5
	C511.7,73.2,515.5,61.4,515.5,53.2z"/>
<path fill="#FFFFFF" d="M545.1,47.9c-1.2,0-2.1-1.1-1.7-2.3c3.4-12.2,13.4-15.9,25.9-15.9c15,0,24.6,3.6,24.6,14.1
	c0,7.2-4.1,22.2-5.3,27.1c-0.9,3.7-1.7,7.2-1.7,10.1c0,0.8,0.1,1.4,0.2,2c0.2,1.1-0.6,2.1-1.8,2.1h-13.5c-0.9,0-1.7-0.7-1.8-1.5
	c-0.2-1.1-0.2-1.6-0.2-3.7h-0.2c-3.3,4.8-8.6,6.8-16.3,6.8c-10.1,0-17.6-4.1-17.6-15.2c0-14.5,12.9-17.3,26.7-18.3
	c6-0.3,14.4,0.1,14.4-7c0-3.1-2.2-5.2-7.5-5.2c-5.1,0-8.4,1.4-9.5,5.4c-0.2,0.8-0.9,1.4-1.7,1.4H545.1z M560.6,75.8
	c10.7,0,12.8-10.5,13.4-15.4h-0.1c-4.5,3.7-20.5-0.6-20.5,9.8C553.4,74.5,557,75.8,560.6,75.8z"/>
<path fill="#FFFFFF" d="M608.8,86.8c0.8,0,1.6,0.6,1.8,1.4c0.3,1.4,0.9,2.5,1.8,3.4c1.2,1,3,1.7,5.1,1.7c11,0,11.2-8.5,13.2-17.1
	h-0.2c-2.7,4.4-9,6.4-14.1,6.4C604,82.6,596,74,596,61.8c0-15.5,9-32.1,26.1-32.1c7.1,0,13.8,2.1,16.5,9.2h0.2l1.2-6.1
	c0.2-0.8,0.9-1.5,1.8-1.5h13.2c1.1,0,2,1,1.8,2.2l-8.6,41.4c-4.8,22.8-12.1,29.3-31.8,29.3c-11,0-22.8-3.1-23.7-15.5
	c-0.1-1,0.8-1.9,1.8-1.9H608.8z M635.2,54.2c0-6.2-2.6-11-8.4-11c-9,0-13.1,8.8-13.1,17c0,5.7,2.3,10.5,8.6,10.5
	C631.1,70.6,635.2,62.4,635.2,54.2z"/>
<path fill="#FFFFFF" d="M673.7,64.2c0,0.5-0.1,1.1-0.1,1.8c0,0.1,0,0.2,0,0.2c0.6,5.5,3.8,8.5,9.6,8.5c5.5,0,8.4-1.9,9.9-4.9
	c0.3-0.6,0.9-1,1.6-1h13.5c1.3,0,2.2,1.3,1.7,2.5c-4.8,11.1-15.1,15.4-27.3,15.4c-15,0-25.9-7.6-25.9-23.5
	c0-19.1,12.6-33.6,32.1-33.6c13.9,0,24.6,8,24.6,23.6c0,2.7-0.1,5.2-0.4,7.7c-0.1,0.9-0.9,1.6-1.8,1.6h-35.7
	C674.5,62.5,673.7,63.3,673.7,64.2z M694.5,52.6c1,0,1.8-0.9,1.8-1.9c-0.2-5.1-3-9.1-8.3-9.1c-6.4,0-10.1,3.2-12.2,8.6
	c-0.5,1.2,0.4,2.5,1.7,2.5H694.5z"/>
<path fill="#FFFFFF" d="M727.7,31.2h14c1.2,0,2,1.1,1.8,2.2l-1,4.4h0.2c2.6-3.6,9.2-8.1,18.6-8.1c9.7,0,15.5,5.9,15.5,15.2
	c0,3.5-1.2,8.9-1.9,11.6l-6.1,27.3c-0.2,0.8-0.9,1.4-1.8,1.4h-14c-1.1,0-2-1.1-1.8-2.2l5.7-26.4c0.5-2.5,1-4.8,1-6.9
	c0-4.3-2.7-6.6-6.4-6.6c-10.9,0-12.2,10.3-14,19.1L733,83.8c-0.2,0.8-0.9,1.4-1.8,1.4h-14c-1.1,0-2-1-1.8-2.2l10.5-50.4
	C726.1,31.8,726.9,31.2,727.7,31.2z"/>
<g>
	<path fill="#FFFFFF" d="M91.2,23.6l-1.8,8.8c-0.2,1.1-1.2,1.8-2.2,1.8H51.4c-1.1,0-2,0.8-2.2,1.8l-1.5,7.7
		c-0.3,1.4,0.8,2.8,2.2,2.8h30.9c1.5,0,2.5,1.3,2.2,2.8l-1.7,7.8c-0.2,1.1-1.2,1.8-2.2,1.8H46.3c-1.1,0-2,0.8-2.2,1.8L42.2,69
		c-0.3,1.4,0.8,2.8,2.2,2.8h34.4c1.5,0,2.5,1.3,2.2,2.8l-1.9,8.8c-0.2,1.1-1.2,1.8-2.2,1.8H25.7c-1.5,0-2.5-1.3-2.2-2.8L36,22.7
		c0.2-1.1,1.2-1.8,2.2-1.8H89C90.4,20.9,91.5,22.2,91.2,23.6z"/>
</g>
</svg>
