<?xml version="1.0" encoding="utf-8"?>
<!-- Generator: Adobe Illustrator 18.1.1, SVG Export Plug-In . SVG Version: 6.00 Build 0)  -->
<svg version="1.1" id="Proxima" xmlns="http://www.w3.org/2000/svg" xmlns:xlink="http://www.w3.org/1999/xlink" x="0px" y="0px"
	 viewBox="0 0 400 119" enable-background="new 0 0 400 119" xml:space="preserve">
<g>
	<defs>
		<rect id="SVGID_1_" width="400" height="119"/>
	</defs>
	<clipPath id="SVGID_2_">
		<use xlink:href="#SVGID_1_"  overflow="visible"/>
	</clipPath>
	<path clip-path="url(#SVGID_2_)" fill="#FA3D38" d="M108,79.9l3.8-5.3c2.3,2.4,5.9,4.4,10.4,4.4c3.8,0,5.7-1.8,5.7-3.6
		c0-5.8-18.9-1.8-18.9-14.1c0-5.5,4.7-10,12.4-10c5.2,0,9.5,1.6,12.8,4.6l-3.9,5.1c-2.7-2.5-6.2-3.6-9.5-3.6c-3,0-4.7,1.3-4.7,3.3
		c0,5.2,18.8,1.7,18.8,13.9c0,6-4.3,10.5-13.1,10.5C115.5,85.1,111,83,108,79.9z"/>
	<path clip-path="url(#SVGID_2_)" fill="#FA3D38" d="M153.5,84.5v-3c-1.6,1.8-4.5,3.6-8.3,3.6c-5.2,0-7.7-2.8-7.7-7.5V60.8h6.2v14.4
		c0,3.3,1.7,4.4,4.4,4.4c2.4,0,4.3-1.3,5.4-2.7V60.8h6.2v23.7H153.5z"/>
	<path clip-path="url(#SVGID_2_)" fill="#FA3D38" d="M169.6,81.5v12.1h-6.2V60.8h6.2v3c1.8-2.3,4.4-3.6,7.3-3.6
		c6.1,0,10.5,4.5,10.5,12.4s-4.4,12.5-10.5,12.5C174.1,85.1,171.5,83.9,169.6,81.5z M180.9,72.6c0-4.1-2.4-6.9-6-6.9
		c-2,0-4.3,1.2-5.4,2.7v8.4c1,1.5,3.3,2.7,5.4,2.7C178.5,79.5,180.9,76.7,180.9,72.6z"/>
	<path clip-path="url(#SVGID_2_)" fill="#FA3D38" d="M189.7,72.6c0-6.9,5.1-12.4,12.3-12.4c7.1,0,11.9,5.3,11.9,13.1v1.4h-17.6
		c0.4,3,2.8,5.5,6.8,5.5c2,0,4.8-0.9,6.3-2.4l2.8,4c-2.4,2.2-6.1,3.3-9.8,3.3C195.1,85.1,189.7,80.2,189.7,72.6z M201.9,65.2
		c-3.9,0-5.6,2.9-5.8,5.3h11.7C207.6,68.2,206.1,65.2,201.9,65.2z"/>
	<path clip-path="url(#SVGID_2_)" fill="#FA3D38" d="M216.8,84.5V60.8h6.2V64c1.7-2.1,4.6-3.8,7.6-3.8v6.1c-0.4-0.1-1-0.1-1.7-0.1
		c-2.1,0-4.8,1.2-5.8,2.7v15.7H216.8z"/>
	<path clip-path="url(#SVGID_2_)" fill="#FA3D38" d="M234.1,68.2c0-9.9,7.2-16.9,17.1-16.9c9.9,0,17.1,7.1,17.1,16.9
		c0,9.9-7.2,16.9-17.1,16.9C241.3,85.1,234.1,78,234.1,68.2z M261.1,68.2c0-6.1-3.9-10.8-10-10.8c-6,0-9.9,4.6-9.9,10.8
		c0,6.1,3.9,10.8,9.9,10.8C257.2,78.9,261.1,74.2,261.1,68.2z"/>
	<path clip-path="url(#SVGID_2_)" fill="#FA3D38" d="M274.1,84.5V66.2h-3.9v-5.5h3.9v-1.3c0-5.1,3.2-8.3,8-8.3
		c2.3,0,4.7,0.6,6.2,2.2l-2.4,3.7c-0.6-0.6-1.5-1-2.6-1c-1.7,0-2.9,1.1-2.9,3.3v1.3h4.8v5.5h-4.8v18.3H274.1z M290.2,84.5V66.2h-3.9
		v-5.5h3.9v-1.3c0-5.2,3.3-8.3,8-8.3c1.8,0,3.4,0.4,4.5,1l-1.3,4.5c-0.5-0.3-1.2-0.6-2-0.6c-1.8,0-2.9,1.2-2.9,3.3v1.3h4.8v5.5h-4.8
		v18.3H290.2z M304.3,54.5c0-2.1,1.7-3.7,3.7-3.7c2.1,0,3.7,1.6,3.7,3.7c0,2.1-1.7,3.7-3.7,3.7C306,58.2,304.3,56.6,304.3,54.5z
		 M304.9,84.5V60.8h6.2v23.7H304.9z"/>
	<path clip-path="url(#SVGID_2_)" fill="#FA3D38" d="M314.2,72.6c0-7.3,5.3-12.4,12.6-12.4c4.9,0,7.8,2.1,9.4,4.3l-4.1,3.8
		c-1.1-1.7-2.8-2.6-5-2.6c-3.8,0-6.4,2.7-6.4,6.9c0,4.1,2.7,6.9,6.4,6.9c2.2,0,3.9-1,5-2.6l4.1,3.8c-1.6,2.2-4.5,4.3-9.4,4.3
		C319.4,85.1,314.2,79.9,314.2,72.6z"/>
	<path clip-path="url(#SVGID_2_)" fill="#FA3D38" d="M336.9,72.6c0-6.9,5.1-12.4,12.3-12.4c7.1,0,11.9,5.3,11.9,13.1v1.4h-17.6
		c0.4,3,2.8,5.5,6.8,5.5c2,0,4.8-0.9,6.3-2.4l2.8,4c-2.4,2.2-6.1,3.3-9.8,3.3C342.4,85.1,336.9,80.2,336.9,72.6z M349.2,65.2
		c-3.9,0-5.5,2.9-5.8,5.3h11.7C354.9,68.2,353.4,65.2,349.2,65.2z"/>
	<g clip-path="url(#SVGID_2_)">
		<path fill="#FA3D38" d="M369.6,84.5c-2.1,0-3.8-1.7-3.8-3.8c0-2.1,1.7-3.8,3.8-3.8c2.1,0,3.8,1.7,3.8,3.8
			C373.3,82.8,371.6,84.5,369.6,84.5z M369.6,77.5c-1.8,0-3.3,1.4-3.3,3.2c0,1.8,1.5,3.3,3.3,3.3c1.8,0,3.2-1.5,3.2-3.3
			C372.8,79,371.3,77.5,369.6,77.5z M370.6,82.9l-1.1-1.7h-0.8v1.7h-0.6v-4.3h1.8c0.7,0,1.4,0.5,1.4,1.3c0,1-0.9,1.3-1.1,1.3
			l1.2,1.7H370.6z M369.9,79.1h-1.2v1.6h1.2c0.4,0,0.8-0.3,0.8-0.8C370.6,79.5,370.2,79.1,369.9,79.1z"/>
	</g>
	<g clip-path="url(#SVGID_2_)">
		<path fill="#FA3D38" d="M71.2,60.5c0,0,4-18.8-13-22.9c-7.7-1.8-7.1,1.9-23.9-3.9c0,0,4.7,10.5,13.1,12.3c1.7,0.4,3.5,0.4,5.4,0.4
			c0,0,0,0,0,0c0,0,0,0,0.1,0c0.3,0,0.6,0,0.9,0c0.3,0,0.6,0,0.9,0c0,0,0.1,0,0.1,0c0.4,0,0.7,0,1.1,0c0,0,0.1,0,0.1,0
			c0.7,0,1.5,0,2.2,0.1c0,0,0,0,0.1,0c0.4,0,0.7,0.1,1.1,0.1c0,0,0,0,0,0v0c0,0,0.1,0,0.1,0c1.6,0.2,3.1,0.7,4.4,1.5
			c2.7,2.1,4.5,6.1,4.3,10.7c-0.2,3.7-1.6,6.9-3.6,9c0.7-1.3,1.1-2.9,1.2-4.6c0.2-4.7-2.5-8.7-5.9-8.8c-0.6,0-1.2,0.1-1.7,0.2
			c0.2,1.9,0.5,4,0.5,4.2c0,0.3-1.6-1.2-3-2.6c-1.4,1.5-2.4,3.8-2.5,6.4c-0.1,2,0.4,3.9,1.2,5.5c-2.3-2.2-3.8-5.9-3.6-10.1
			c0.2-4.9,2.6-8.9,5.8-10.6c-0.5,0-1,0-1.5,0c-0.3,0-0.6,0-0.9,0c-0.3,0-0.6,0-0.9,0c-1,0-2.2,0-3.3-0.1c-1.9,2.6-3.1,6.1-3.3,9.9
			c-0.4,8.7,4.9,16,11.9,16.3C64.4,73.8,69.9,68.1,71.2,60.5L71.2,60.5z"/>
		<path fill="#FA3D38" d="M73,58.5C72.4,64,70,68.7,66.7,71.7c0.6,0.9,1.8,2.9,2.8,4.4c2.4,3.5,6.6,9.1,6.6,9.1
			c4.4-5,6.7-13.9,5-17.7C79.8,64.5,75.5,60.1,73,58.5z"/>
		<path fill="#FA3D38" d="M84.3,46.5c0.4-0.1,0.8-0.1,1.2-0.2c4.6-0.3,5.1,1.2,10.2-1.6c5.1-2.7,6.9-9.2,6.9-9.2s-4.6,2.2-8.1,2.7
			c-4.6,0.6-8.8-0.8-14.4,3c-5.9,4-5.6,15.4-5.6,16.8c1.4,1,2.9,2.5,4.4,4.1c0,0,0.1,0.1,0.1,0.1c0.1,0.1,0.3,0.3,0.4,0.4
			c0.1,0.1,0.1,0.1,0.2,0.2c0.1,0.1,0.2,0.3,0.3,0.4c0.1,0.1,0.1,0.2,0.2,0.3c0.1,0.1,0.2,0.2,0.3,0.4c0.1,0.1,0.2,0.2,0.2,0.3
			c0.1,0.1,0.2,0.2,0.2,0.3c0.1,0.1,0.2,0.2,0.2,0.3c0.1,0.1,0.1,0.2,0.2,0.3c0.1,0.1,0.1,0.2,0.2,0.3c0.1,0.1,0.1,0.2,0.2,0.3
			c0.1,0.1,0.1,0.3,0.2,0.4c0,0.1,0.1,0.1,0.1,0.2c0.1,0.2,0.2,0.4,0.3,0.6c0.1,0.2,0.2,0.4,0.2,0.7c0,0.1,0,0.1,0.1,0.2
			c0,0.2,0.1,0.3,0.1,0.5c0.1,0.5,0.2,1,0.2,1.5c0.9,0.3,1.8,0.4,2.7,0.4c6-0.1,10.7-6.2,10.6-13.8c-0.1-3.6-1.2-6.9-3.1-9.3
			c-1.1,0.3-1.9,0.4-2.8,0.4c-0.5,0-1,0-1.5-0.1c2.3,1.7,3.9,5.2,3.8,9.2c-0.1,3.7-1.5,6.9-3.6,8.7c0.7-1.2,1.2-2.8,1.3-4.4
			c0.3-4.5-2.1-8.3-5.4-8.5c-0.9-0.1-1.8,0.2-2.6,0.6c0.2,1.5,0.5,3.8,0.5,4c0,0.2-1.5-1.2-2.5-2.3c-0.9,1.2-1.5,2.7-1.8,4.3
			c-0.1-0.8-0.2-1.7-0.2-2.6C78.4,51.5,81,47.4,84.3,46.5z"/>
	</g>
</g>
</svg>
